<svg id="Layer_1" data-name="Layer 1" xmlns="http://www.w3.org/2000/svg" viewBox="0 0 500 500"><defs><style>.cls-1{fill:#12739e;}.cls-2{fill:#fff;}</style></defs><title>slackison 500x500</title><path class="cls-1" d="M365.25,91.37a17.63,17.63,0,0,0-12.56-5.21H147.31a17.65,17.65,0,0,0-12.57,5.21L40,186.1a17.79,17.79,0,0,0,0,25.13l197.4,197.4a17.77,17.77,0,0,0,25.14,0L460,211.23a17.78,17.78,0,0,0,0-25.13Z"/><path class="cls-2" d="M329.28,210.38c0,19.42-.07,38.84.07,58.26,0,4.2-1.56,4.16-7.21,4.16-10.8,0-20.14,0-30.24,0-5.28,0-7,.32-7-3.53.09-33.46,0-66.93.15-100.39a9.08,9.08,0,0,1,2.24-5.5c4.25-4.73,8.73-9.27,13.36-13.61a7.94,7.94,0,0,1,5.1-2.1c6.42-.25,12.87,0,19.3-.16,3.24-.09,4.26,1.1,4.24,4.29C329.23,171.3,329.28,190.84,329.28,210.38Z"/><path class="cls-2" d="M275.72,177.47a1.44,1.44,0,0,1,2.4,1c0,.58.06,1.07.06,1.56,0,14.86.09,29.73-.1,44.58a10,10,0,0,1-2.36,5.83c-7,7.35-14.36,14.39-21.45,21.67-2,2.05-3.29,2.19-5.4.08-25.17-25.3-50.45-50.49-75.59-75.83a9.61,9.61,0,0,1-2.47-5.81c-.31-6.3,0-12.63-.15-18.95a4,4,0,0,1,4.15-4.1q9.49.21,19,0a8.27,8.27,0,0,1,6.48,2.77q23.9,24,47.89,47.92c4.49,4.49,3.06,3,11.35-4.34a160.59,160.59,0,0,0,14.08-14.26A22.44,22.44,0,0,1,275.72,177.47Z"/><path class="cls-2" d="M170.89,190.61c.18-1.13,1.53-4.5,2.38-3.74.64.56,1.15,1,1.63,1.49,12.56,12.42,25.18,24.8,37.6,37.36,1.36,1.39,2.53,7,2.57,8.93.24,11.47,0,22.94.18,34.41.05,3.15-1,4-4.05,3.93q-18.25-.23-36.51,0c-3.13,0-4.05-1.13-4-4.1.07-25.51,0-51,.06-76.53A10.49,10.49,0,0,1,170.89,190.61Z"/></svg>