<svg id="Layer_1" data-name="Layer 1" xmlns="http://www.w3.org/2000/svg" viewBox="0 0 795.31 243.68"><defs><style>.cls-1{fill:#12739e;}.cls-2{fill:#fff;}</style></defs><title>logo-white</title><path class="cls-1" d="M224,19.85a11.35,11.35,0,0,0-8.08-3.35h-132a11.35,11.35,0,0,0-8.08,3.35L14.85,80.75a11.43,11.43,0,0,0,0,16.16L141.76,223.83a11.44,11.44,0,0,0,16.16,0L284.85,96.91a11.44,11.44,0,0,0,0-16.16Z"/><path class="cls-2" d="M200.82,96.36c0,12.49,0,25,0,37.46,0,2.7-1,2.68-4.63,2.68-6.95,0-12.95,0-19.44,0-3.4,0-4.48.21-4.48-2.27.06-21.51,0-43,.1-64.54a5.86,5.86,0,0,1,1.44-3.54c2.73-3,5.61-6,8.59-8.75A5,5,0,0,1,185.72,56c4.13-.17,8.27,0,12.41-.11,2.08-.06,2.74.71,2.72,2.76C200.79,71.24,200.82,83.8,200.82,96.36Z"/><path class="cls-2" d="M166.38,75.21a.93.93,0,0,1,1.55.64c0,.37,0,.68,0,1,0,9.55.06,19.11-.06,28.66a6.37,6.37,0,0,1-1.52,3.75c-4.51,4.72-9.23,9.25-13.79,13.93-1.28,1.32-2.11,1.41-3.46,0C132.94,107,116.69,90.78,100.52,74.49a6.17,6.17,0,0,1-1.58-3.74c-.21-4,0-8.12-.1-12.18a2.59,2.59,0,0,1,2.67-2.64q6.09.14,12.2,0a5.32,5.32,0,0,1,4.16,1.77q15.36,15.45,30.79,30.82c2.89,2.88,2,1.9,7.3-2.79a104.44,104.44,0,0,0,9-9.17A15.94,15.94,0,0,1,166.38,75.21Z"/><path class="cls-2" d="M99,83.66c.12-.73,1-2.9,1.54-2.41s.73.65,1,1c8.08,8,16.19,15.94,24.18,24,.88.89,1.62,4.49,1.65,5.74.16,7.37,0,14.75.12,22.12,0,2-.67,2.55-2.61,2.53q-11.73-.15-23.47,0c-2,0-2.6-.73-2.6-2.64,0-16.4,0-32.8,0-49.21A8,8,0,0,1,99,83.66Z"/><path class="cls-2" d="M462.86,16.54h3a1.89,1.89,0,0,1,2,2v95.22a1.89,1.89,0,0,1-2,2H456.7a1.89,1.89,0,0,1-2-2V46.19l-37,53.57a1.52,1.52,0,0,1-2.76,0l-37-53.57v67.57a1.89,1.89,0,0,1-2,2h-9.17a1.89,1.89,0,0,1-2-2V18.54a1.89,1.89,0,0,1,2-2h3a3,3,0,0,1,2.48,1.36l44.1,61.57L460.42,17.9A2.89,2.89,0,0,1,462.86,16.54Z"/><path class="cls-2" d="M583.89,115.76h-11a2.23,2.23,0,0,1-2.28-1.48L560,89.68H514.11l-11.4,24.6a2.35,2.35,0,0,1-2.28,1.48h-9.76c-1.44,0-2.28-.88-1.6-2.36L534.2,18a2.32,2.32,0,0,1,2.28-1.48h3.2A2.39,2.39,0,0,1,542,18l43.41,95.38C586,114.88,585.33,115.76,583.89,115.76ZM555.37,79.11,537.8,38.5,519,79.11Z"/><path class="cls-2" d="M620.54,20.14v93.62a2,2,0,0,1-2,2h-9.16a2,2,0,0,1-2-2V20.14a2,2,0,0,1,2-2h9.16A2,2,0,0,1,620.54,20.14Zm63.06,95.62H671.8a3,3,0,0,1-2.48-1.08L625.27,66.15,669,19.22a2.93,2.93,0,0,1,2.48-1.08h10.88c1.68,0,2.36,1,1.16,2.4l-41.77,45,43,47.85C685.88,114.56,685.32,115.76,683.6,115.76Z"/><path class="cls-2" d="M783.31,106.56v7.2a1.89,1.89,0,0,1-2,2H711a2,2,0,0,1-2-2V20.14a2,2,0,0,1,2-2h68.7a1.89,1.89,0,0,1,2,2v7.2a1.89,1.89,0,0,1-2,2H722.17V59.91H773.3a1.88,1.88,0,0,1,2,2v7.24a1.89,1.89,0,0,1-2,2H722.17v33.45h59.14A1.89,1.89,0,0,1,783.31,106.56Z"/><path class="cls-2" d="M411.74,209.36c0,12.34-11.36,17.78-24.05,17.78-9.51,0-16.27-3-22.11-6.58a1.2,1.2,0,0,1-.61-1.72l2-4.37a1.16,1.16,0,0,1,1.75-.53c5.26,3,10.22,6.12,19.37,6.12,8.91,0,14.93-2.86,14.93-9.64,0-16.57-36.5-7.31-36.5-29.19,0-9.74,8-17.63,23-17.63,9.81,0,15.5,3,20,5.56a1.2,1.2,0,0,1,.58,1.72L408,175.51c-.35.74-.88,1-1.92.31a30.37,30.37,0,0,0-16.59-5.34c-10.45,0-14.67,5-14.67,10.09C374.84,195.32,411.74,187.07,411.74,209.36Z"/><path class="cls-2" d="M485.57,211.05c-5.79,11.59-14.85,16.09-25.85,16.09-16.19,0-31.46-12.14-31.46-31.77s15.27-31.77,31.46-31.77c11,0,20.06,4.5,25.85,16.09a1.18,1.18,0,0,1-.6,1.74l-4.46,2.15a1.24,1.24,0,0,1-1.77-.68c-4.42-8.75-11.2-12.22-19-12.22-13.2,0-22.74,10.07-22.74,24.69s9.54,24.69,22.74,24.69c7.82,0,14.6-3.47,19-12.22a1.24,1.24,0,0,1,1.77-.68l4.46,2.15A1.18,1.18,0,0,1,485.57,211.05Z"/><path class="cls-2" d="M560.79,165.78V225a1.29,1.29,0,0,1-1.27,1.27h-5.79a1.29,1.29,0,0,1-1.27-1.27V198H514v27a1.28,1.28,0,0,1-1.26,1.27H507a1.28,1.28,0,0,1-1.26-1.27V165.78a1.28,1.28,0,0,1,1.26-1.27h5.8a1.28,1.28,0,0,1,1.26,1.27v25.14h38.42V165.78a1.29,1.29,0,0,1,1.27-1.27h5.79A1.29,1.29,0,0,1,560.79,165.78Z"/><path class="cls-2" d="M644.19,195.37c0,19.63-15.27,31.77-31.46,31.77S581.26,215,581.26,195.37s15.28-31.77,31.47-31.77S644.19,175.74,644.19,195.37Zm-8.72,0c0-14.62-9.54-24.69-22.74-24.69S590,180.75,590,195.37s9.53,24.69,22.74,24.69S635.47,210,635.47,195.37Z"/><path class="cls-2" d="M723.64,195.37c0,19.63-15.28,31.77-31.47,31.77S660.71,215,660.71,195.37,676,163.6,692.17,163.6,723.64,175.74,723.64,195.37Zm-8.73,0c0-14.62-9.53-24.69-22.74-24.69s-22.74,10.07-22.74,24.69,9.54,24.69,22.74,24.69S714.91,210,714.91,195.37Z"/><path class="cls-2" d="M783.8,220.41V225a1.2,1.2,0,0,1-1.27,1.27H741.38a1.28,1.28,0,0,1-1.26-1.27V165.78a1.28,1.28,0,0,1,1.26-1.27h5.79a1.28,1.28,0,0,1,1.27,1.27v53.37h34.09A1.19,1.19,0,0,1,783.8,220.41Z"/></svg>